Coordinates
version=1
nRows=10
nColumns=40
inDegrees=yes

Units are S.I. units (second, meters, Newtons, ...)
If the header above contains a line with 'inDegrees', this indicates whether rotational values are in degrees (yes) or radians (no).

endheader
time	pelvis_tilt	pelvis_list	pelvis_rotation	pelvis_tx	pelvis_ty	pelvis_tz	hip_flexion_r	hip_adduction_r	hip_rotation_r	knee_angle_r	knee_angle_r_beta	ankle_angle_r	subtalar_angle_r	mtp_angle_r	hip_flexion_l	hip_adduction_l	hip_rotation_l	knee_angle_l	knee_angle_l_beta	ankle_angle_l	subtalar_angle_l	mtp_angle_l	lumbar_extension	lumbar_bending	lumbar_rotation	arm_flex_r	arm_add_r	arm_rot_r	elbow_flex_r	pro_sup_r	wrist_flex_r	wrist_dev_r	arm_flex_l	arm_add_l	arm_rot_l	elbow_flex_l	pro_sup_l	wrist_flex_l	wrist_dev_l
      5.13000000	     -7.38834750	     -0.96773641	     -1.77040657	     -0.13027037	      1.30962041	     -0.85109088	      1.07705474	     -9.21584250	    -22.50944073	      7.84556067	      0.13693087	    -25.90557470	      0.00000000	      0.00000000	      2.12012864	    -17.45502309	    -19.88751410	      8.84009203	      0.15428871	    -29.84950504	      0.00000000	      0.00000000	     -1.09827742	      1.61938584	      1.15574819	    -35.39919853	    -49.29878753	     28.52078912	     95.65858954	     87.74489077	      0.00000000	      0.00000000	    -23.83975312	    -55.04276583	     38.04344813	     98.83602691	     87.58661573	      0.00000000	      0.00000000
      5.13500000	     -7.64906924	     -1.00753318	     -1.83373807	     -0.13225527	      1.30131211	     -0.85069399	      1.82456388	     -9.32072807	    -21.99669823	      8.10862751	      0.14152225	    -24.61440796	      0.00000000	      0.00000000	      2.82540462	    -17.71448028	    -19.94221771	      9.00819214	      0.15722261	    -28.81133925	      0.00000000	      0.00000000	     -1.24841386	      1.65623140	      1.18038045	    -35.37090365	    -49.40618108	     28.52979168	     95.80652522	     87.90288315	      0.00000000	      0.00000000	    -23.82943033	    -54.94173749	     37.85037651	     98.85400996	     87.73970096	      0.00000000	      0.00000000
      5.14000000	     -7.78237172	     -1.03960627	     -1.87740813	     -0.13319274	      1.29285744	     -0.85050552	      2.27369144	     -9.42769273	    -21.92005523	      8.05159298	      0.14052681	    -24.13806004	      0.00000000	      0.00000000	      3.24167885	    -17.91539505	    -20.11464164	      8.92877805	      0.15583658	    -28.33771575	      0.00000000	      0.00000000	     -1.44595032	      1.69523489	      1.19069502	    -35.47041969	    -49.48712779	     28.52247046	     95.90073297	     87.86218652	      0.00000000	      0.00000000	    -23.91774558	    -54.89751540	     37.78208228	     98.89886766	     87.70357124	      0.00000000	      0.00000000
      5.14500000	     -7.74424829	     -1.04014502	     -1.90297806	     -0.13455274	      1.28457058	     -0.85026738	      2.58116673	     -9.58929588	    -21.88404406	      8.00046142	      0.13963439	    -24.04485057	      0.00000000	      0.00000000	      3.53078602	    -18.07769302	    -20.12184824	      8.87151483	      0.15483714	    -28.23760634	      0.00000000	      0.00000000	     -1.94017013	      1.68014408	      1.18823594	    -35.46396834	    -49.51951348	     28.52918707	     95.89574004	     87.71190629	      0.00000000	      0.00000000	    -23.90366317	    -54.88930700	     37.78412655	     98.89610965	     87.56068063	      0.00000000	      0.00000000
      5.15000000	     -8.12166737	     -0.96841720	     -2.06221387	     -0.13645996	      1.27524955	     -0.84998641	      3.57366009	     -9.87404349	    -21.19932786	      8.48127874	      0.14802624	    -22.55251660	      0.00000000	      0.00000000	      4.41613569	    -18.26075253	    -20.44556149	      9.29127060	      0.16216326	    -26.98859850	      0.00000000	      0.00000000	     -1.94409083	      1.62317775	      1.17991892	    -35.09320266	    -49.83217588	     29.05388299	     96.07356879	     87.92401873	      0.00000000	      0.00000000	    -24.09357936	    -54.74037448	     37.46989651	     98.93697616	     87.72092174	      0.00000000	      0.00000000
      5.15500000	     -8.30660305	     -0.96247223	     -2.16209620	     -0.13791941	      1.26608296	     -0.84968407	      4.20987516	    -10.04519037	    -20.96099137	      8.60628711	      0.15020805	    -22.02105966	      0.00000000	      0.00000000	      5.01350151	    -18.47519549	    -20.71989702	      9.49817210	      0.16577438	    -26.27705952	      0.00000000	      0.00000000	     -2.18710928	      1.62624134	      1.23041041	    -35.18047782	    -49.87478175	     28.97551148	     96.15831359	     87.92091650	      0.00000000	      0.00000000	    -24.36277938	    -54.60440882	     37.07918083	     98.98755269	     87.76119074	      0.00000000	      0.00000000
      5.16000000	     -8.47276506	     -0.98513224	     -2.23944388	     -0.13936709	      1.25667502	     -0.84943053	      4.81531179	    -10.17669195	    -20.53780316	      8.72160502	      0.15222072	    -21.59013521	      0.00000000	      0.00000000	      5.61518094	    -18.71066426	    -20.94259248	      9.69573821	      0.16922256	    -25.73692318	      0.00000000	      0.00000000	     -2.43909713	      1.65507454	      1.25771683	    -35.22653542	    -49.94230003	     28.98389607	     96.23017817	     87.93472250	      0.00000000	      0.00000000	    -24.43511857	    -54.56856476	     36.97408718	     98.99367111	     87.74573920	      0.00000000	      0.00000000
      5.16500000	     -8.62968414	     -0.96792286	     -2.30234265	     -0.14091831	      1.24706919	     -0.84922909	      5.43632012	    -10.37451417	    -20.27477209	      8.87304338	      0.15486382	    -21.16359795	      0.00000000	      0.00000000	      6.19442665	    -18.88876142	    -21.16411236	      9.81010338	      0.17121860	    -25.45149179	      0.00000000	      0.00000000	     -2.70541654	      1.64651467	      1.31974734	    -35.27282669	    -49.99487446	     28.99426518	     96.28142008	     87.93350235	      0.00000000	      0.00000000	    -24.45035103	    -54.53323712	     36.87740107	     99.01589783	     87.76259406	      0.00000000	      0.00000000
      5.17000000	     -8.81044589	     -0.92007604	     -2.33433341	     -0.14269720	      1.23719587	     -0.84912282	      6.11527803	    -10.62918829	    -20.14830261	      9.07408547	      0.15837267	    -20.78321825	      0.00000000	      0.00000000	      6.89302786	    -19.05894982	    -21.26534556	     10.13011852	      0.17680392	    -25.04981275	      0.00000000	      0.00000000	     -2.99350404	      1.61244085	      1.30938709	    -35.25542066	    -50.05021969	     29.06251076	     96.34158988	     87.93004881	      0.00000000	      0.00000000	    -24.45315951	    -54.52331176	     36.83929061	     99.06456875	     87.76629828	      0.00000000	      0.00000000
      5.17500000	     -9.01013440	     -0.90611324	     -2.41402058	     -0.14450901	      1.22708877	     -0.84886720	      6.82187989	    -10.82779790	    -19.82250683	      9.25512889	      0.16153247	    -20.36765241	      0.00000000	      0.00000000	      7.59854194	    -19.26239174	    -21.30631783	     10.32452576	      0.18019697	    -24.86454135	      0.00000000	      0.00000000	     -3.24626353	      1.61122516	      1.35264916	    -35.17207265	    -50.10976574	     29.23932935	     96.36664071	     87.89146900	      0.00000000	      0.00000000	    -24.38218210	    -54.55733175	     36.90093939	     99.09154266	     87.68940298	      0.00000000	      0.00000000
